<svg width="22" height="22" viewBox="0 0 22 22" fill="none" xmlns="http://www.w3.org/2000/svg">
<path d="M8.75383 13.8875L16.5226 6.11875C16.7059 5.93542 16.9236 5.84375 17.1757 5.84375C17.4278 5.84375 17.6455 5.93542 17.8288 6.11875C18.0122 6.30208 18.1038 6.51979 18.1038 6.77188C18.1038 7.02396 18.0122 7.24167 17.8288 7.425L9.39549 15.8583C9.21216 16.0417 8.99827 16.1333 8.75383 16.1333C8.50938 16.1333 8.29549 16.0417 8.11216 15.8583L4.17049 11.9167C3.98716 11.7333 3.89931 11.5156 3.90695 11.2635C3.91459 11.0115 4.01008 10.7938 4.19341 10.6104C4.37674 10.4271 4.59445 10.3354 4.84654 10.3354C5.09862 10.3354 5.31633 10.4271 5.49966 10.6104L8.75383 13.8875Z" fill="white"/>
</svg>
