<svg width="10" height="10" viewBox="0 0 10 10" fill="none" xmlns="http://www.w3.org/2000/svg">
<path d="M4.31075 5.68783H1.32393C1.13047 5.68783 0.967198 5.62129 0.834127 5.48822C0.701057 5.35515 0.634521 5.19189 0.634521 4.99843C0.634521 4.80498 0.701057 4.64172 0.834127 4.50865C0.967198 4.37558 1.13047 4.30904 1.32393 4.30904H4.31075V1.32222C4.31075 1.12876 4.37728 0.965489 4.51035 0.832419C4.64343 0.699348 4.80669 0.632812 5.00014 0.632812C5.1936 0.632812 5.35686 0.699348 5.48993 0.832419C5.623 0.965489 5.68954 1.12876 5.68954 1.32222V4.30904H8.67635C8.86982 4.30904 9.03309 4.37558 9.16616 4.50865C9.29923 4.64172 9.36576 4.80498 9.36576 4.99843C9.36576 5.19189 9.29923 5.35515 9.16616 5.48822C9.03309 5.62129 8.86982 5.68783 8.67635 5.68783H5.68954V8.67465C5.68954 8.86811 5.623 9.03138 5.48993 9.16445C5.35686 9.29752 5.1936 9.36405 5.00014 9.36405C4.80669 9.36405 4.64343 9.29752 4.51035 9.16445C4.37728 9.03138 4.31075 8.86811 4.31075 8.67465V5.68783Z" fill="#5534DA"/>
</svg>
