<svg width="11" height="11" viewBox="0 0 11 11" fill="none" xmlns="http://www.w3.org/2000/svg">
<g id="white">
<path id="Union" fill-rule="evenodd" clip-rule="evenodd" d="M5.46644 8.28935C4.87409 8.20038 4.31952 7.95661 3.87587 7.57146C3.85636 7.55425 3.83686 7.53596 3.81837 7.51862L3.81836 7.51862L3.81493 7.5154C3.77349 7.47761 3.73449 7.43861 3.69548 7.39839C3.65648 7.35817 3.61992 7.31673 3.58336 7.2753L3.58335 7.27529L3.56472 7.25353C3.53532 7.21927 3.50568 7.18473 3.47853 7.14853C3.06535 6.61834 2.83987 5.97115 2.83987 5.28617C2.83987 4.58169 3.07754 3.91499 3.51388 3.37627C3.51815 3.37079 3.52241 3.36561 3.52668 3.36043L3.52668 3.36043C3.53094 3.35525 3.53521 3.35007 3.53948 3.34458C3.5992 3.27267 3.66136 3.2032 3.72839 3.13738C3.8649 3.00087 4.01238 2.88143 4.16839 2.77539L4.1684 2.77539C4.21349 2.74492 4.25858 2.71445 4.3049 2.68764C4.31404 2.68215 4.32348 2.67667 4.33293 2.67118L4.33293 2.67118L4.33293 2.67118C4.34238 2.6657 4.35182 2.66021 4.36096 2.65473C4.6998 2.46459 5.07519 2.33662 5.46765 2.27689C5.7297 2.23789 5.96006 2.09895 6.11729 1.88565C6.27452 1.67236 6.34033 1.41031 6.30011 1.14826C6.25989 0.886216 6.12094 0.654639 5.90887 0.497411C5.70898 0.349933 5.46765 0.285336 5.22267 0.309712V0.308493L5.20073 0.31215C5.19586 0.312759 5.19098 0.313064 5.18611 0.313369C5.18123 0.313673 5.17636 0.313978 5.17148 0.314587C5.08372 0.327995 4.99719 0.343839 4.91065 0.360903C3.93681 0.548602 3.03976 1.01785 2.32431 1.7333C0.369315 3.68829 0.365658 6.8682 2.31456 8.82685L2.32553 8.83782L2.32675 8.83904L2.32796 8.84026C3.11898 9.63006 4.12817 10.1212 5.22145 10.2626V10.2565C5.46644 10.2809 5.70898 10.2163 5.90765 10.0688C6.12094 9.91161 6.25989 9.68003 6.29889 9.41798C6.33789 9.15594 6.2733 8.89389 6.11607 8.68059C5.95884 8.4673 5.72848 8.32835 5.46644 8.28935ZM8.63051 3.37262C9.42762 3.37262 10.076 2.74249 10.076 1.96854C10.076 1.17142 9.42762 0.523011 8.63051 0.523011C7.85655 0.523011 7.22642 1.17142 7.22642 1.96854C7.22642 2.74249 7.85655 3.37262 8.63051 3.37262ZM8.50863 6.35143C9.51172 6.35143 9.88102 6.90234 10.0139 7.36427C10.293 8.33445 9.72989 10.0189 8.58419 10.7355L8.3648 10.8733V9.1535C7.65179 9.08037 7.10332 8.48071 7.10332 7.75551C7.10332 6.98156 7.73467 6.35143 8.50863 6.35143Z" fill="white"/>
</g>
</svg>
